#!OML:ASF E:\motion texture\Top Level 1\Subject 1\Session 1\male.ASF
:FULLY-SPECIFIED
:DEGREES
281
root 7.35967 17.7425 4.47047 319.439 -88.5625 -312.557
lowerback -0.0249196 -0.705817 -0.862876
upperback 0.047632 -0.956506 2.20601
thorax 0.114543 -0.486262 2.74424
lowerneck -11.5337 -1.59687 -6.18486
upperneck -12.9092 -1.38727 11.121
head -1.80536 -0.872862 4.41039
rclavicle -2.98177e-016 1.35174e-014
rhumerus -35.7137 10.8814 -92.5059
rradius 58.3774
rwrist -15.3475
rhand -10.255 -29.4273
rfingers 7.12502
rthumb 15.7381 -418.807
lclavicle -2.98177e-016 1.35174e-014
lhumerus -29.9796 -18.8978 108.829
lradius 69.716
lwrist 19.508
lhand -2.87586 44.318
lfingers 7.12502
lthumb 22.8331 72.9864
rfemur -36.8953 -1.65639 15.6158
rtibia 26.0152
rfoot -4.58426 -14.3892
rtoes 2.0649
lfemur -4.79928 -5.1931 -24.255
ltibia 17.243
lfoot -14.615 -0.369426
ltoes 0.616644
282
root 7.22278 17.7317 4.46352 323.988 -88.3467 -317.02
lowerback -0.0356193 -0.721999 -0.850896
upperback 0.0437944 -0.978915 2.26203
thorax 0.118608 -0.49785 2.79501
lowerneck -11.4313 -1.60554 -6.21347
upperneck -13.2948 -1.39097 11.093
head -1.93597 -0.889292 4.41356
rclavicle 9.24349e-015 1.59028e-015
rhumerus -35.5989 9.34275 -91.6402
rradius 57.4701
rwrist -16.5283
rhand -10.1589 -30.6623
rfingers 7.12502
rthumb 15.8306 -420.035
lclavicle 9.24349e-015 1.59028e-015
lhumerus -29.6542 -18.3818 108.202
lradius 69.8953
lwrist 18.5089
lhand -3.04015 43.5697
lfingers 7.12502
lthumb 22.6754 72.2576
rfemur -36.9187 -1.45401 15.3389
rtibia 24.9707
rfoot -4.46829 -14.4415
rtoes 1.88233
lfemur -4.42212 -5.22998 -24.2928
ltibia 17.2862
lfoot -14.8626 -0.607325
ltoes 0.303285
283
root 7.08485 17.721 4.45591 327.652 -88.1274 -320.602
lowerback -0.0460462 -0.73527 -0.831392
upperback 0.0400298 -0.997568 2.32272
thorax 0.122376 -0.507601 2.84636
lowerneck -11.343 -1.6162 -6.24209
upperneck -13.6719 -1.39852 11.0565
head -2.06194 -0.906757 4.41405
rclavicle 2.28602e-015 1.90833e-014
rhumerus -35.4792 7.79523 -90.7605
rradius 56.4891
rwrist -17.7
rhand -10.1011 -31.9617
rfingers 7.12502
rthumb 15.8863 -421.33
lclavicle 2.28602e-015 1.90833e-014
lhumerus -29.3387 -17.8289 107.561
lradius 70.034
lwrist 17.5567
lhand -3.22562 42.8148
lfingers 7.12502
lthumb 22.4974 71.5243
rfemur -36.9278 -1.24962 15.071
rtibia 24.0191
rfoot -4.33882 -14.5037
rtoes 1.71976
lfemur -4.05681 -5.26916 -24.315
ltibia 17.3618
lfoot -15.0961 -0.851103
ltoes -0.0439292
284
root 6.94586 17.7106 4.4476 330.66 -87.9078 -323.531
lowerback -0.0569039 -0.745439 -0.80531
upperback 0.0365597 -1.01222 2.38769
thorax 0.126454 -0.515401 2.89844
lowerneck -11.27 -1.62868 -6.27113
upperneck -14.0394 -1.40971 11.0119
head -2.18271 -0.925043 4.41205
rclavicle -5.96354e-015 2.38542e-014
rhumerus -35.3528 6.23901 -89.8673
rradius 55.4352
rwrist -18.854
rhand -10.0837 -33.3142
rfingers 7.12502
rthumb 15.9031 -422.681
lclavicle -5.96354e-015 2.38542e-014
lhumerus -29.0342 -17.2405 106.907
lradius 70.1293
lwrist 16.6505
lhand -3.42797 42.0814
lfingers 7.12502
lthumb 22.3032 70.8142
rfemur -36.9258 -1.04877 14.8165
rtibia 23.1656
rfoot -4.19664 -14.5655
rtoes 1.58735
lfemur -3.70524 -5.3085 -24.3221
ltibia 17.4718
lfoot -15.3123 -1.10078
ltoes -0.429446
285
root 6.80579 17.7006 4.43858 333.202 -87.6896 -325.999
lowerback -0.0669046 -0.752274 -0.772991
upperback 0.0325139 -1.02255 2.45725
thorax 0.129211 -0.521074 2.95179
lowerneck -11.2118 -1.64305 -6.30116
upperneck -14.3957 -1.42469 10.9584
head -2.29796 -0.944103 4.40732
rclavicle 6.26172e-015 4.77083e-015
rhumerus -35.2208 4.67468 -88.9601
rradius 54.3091
rwrist -19.9797
rhand -10.1114 -34.7095
rfingers 7.12502
rthumb 15.8763 -424.079
lclavicle 6.26172e-015 4.77083e-015
lhumerus -28.7424 -16.6212 106.243
lradius 70.1757
lwrist 15.7912
lhand -3.63671 41.3409
lfingers 7.12502
lthumb 22.1028 70.0976
rfemur -36.9137 -0.856304 14.5802
rtibia 22.4129
rfoot -4.04657 -14.6152
rtoes 1.4912
lfemur -3.36941 -5.34759 -24.3133
ltibia 17.6202
lfoot -15.5081 -1.35897
ltoes -0.847086
286
root 6.66454 17.6911 4.42878 335.438 -87.4704 -328.165
lowerback -0.0783511 -0.757735 -0.734943
upperback 0.028848 -1.03121 2.53102
thorax 0.133063 -0.525972 3.00624
lowerneck -11.1662 -1.659 -6.33104
upperneck -14.7407 -1.44325 10.8954
head -2.40796 -0.963873 4.39946
rclavicle -4.17448e-015 -1.03368e-014
rhumerus -35.0812 3.10298 -88.04
rradius 53.1115
rwrist -21.0645
rhand -10.1888 -36.1393
rfingers 7.12502
rthumb 15.8019 -425.514
lclavicle -4.17448e-015 -1.03368e-014
lhumerus -28.4644 -15.973 105.569
lradius 70.1692
lwrist 14.9749
lhand -3.8678 40.6167
lfingers 7.12502
lthumb 21.8809 69.3995
rfemur -36.8899 -0.676217 14.3633
rtibia 21.7612
rfoot -3.89491 -14.6477
rtoes 1.4323
lfemur -3.05063 -5.38871 -24.2885
ltibia 17.811
lfoot -15.6811 -1.62747
ltoes -1.3026
287
root 6.52233 17.6821 4.41832 337.298 -87.2625 -329.96
lowerback -0.0897522 -0.756433 -0.691737
upperback 0.0232626 -1.03095 2.60805
thorax 0.134383 -0.526412 3.06122
lowerneck -11.1292 -1.67619 -6.36335
upperneck -15.0765 -1.4645 10.8258
head -2.514 -0.983963 4.38988
rclavicle -3.47873e-015 6.36111e-015
rhumerus -34.9384 1.51828 -87.1057
rradius 51.8506
rwrist -22.0961
rhand -10.3064 -37.5917
rfingers 7.12502
rthumb 15.6886 -426.976
lclavicle -3.47873e-015 6.36111e-015
lhumerus -28.2039 -15.3013 104.889
lradius 70.1069
lwrist 14.1967
lhand -4.11606 39.9177
lfingers 7.12502
lthumb 21.6425 68.7281
rfemur -36.8648 -0.509352 14.1737
rtibia 21.2165
rfoot -3.74019 -14.6505
rtoes 1.40077
lfemur -2.75432 -5.42435 -24.2502
ltibia 18.046
lfoot -15.8265 -1.90183
ltoes -1.79768
